<?xml version="1.0" standalone="no"?>
<!DOCTYPE svg PUBLIC "-//W3C//DTD SVG 20010904//EN"
 "http://www.w3.org/TR/2001/REC-SVG-20010904/DTD/svg10.dtd">
<svg version="1.0" xmlns="http://www.w3.org/2000/svg"
 width="2400.000000pt" height="2400.000000pt" viewBox="0 0 2400.000000 2400.000000"
 preserveAspectRatio="xMidYMid meet">
<metadata>
Created by potrace 1.11, written by Peter Selinger 2001-2013
</metadata>
<g transform="translate(0.000000,2400.000000) scale(0.100000,-0.100000)"
fill="#000000" stroke="none">
<path d="M9539 22196 c-2 -2 -62 -6 -134 -10 -71 -3 -139 -8 -151 -10 -12 -2
-45 -7 -75 -11 -361 -41 -955 -280 -1394 -558 -28 -18 -58 -36 -67 -42 -36
-21 -318 -223 -328 -234 -3 -3 -27 -24 -55 -46 -311 -249 -651 -610 -865 -921
-62 -90 -157 -235 -176 -269 -6 -11 -35 -63 -65 -115 -173 -304 -307 -638
-398 -990 -17 -63 -33 -128 -36 -145 -24 -132 -37 -205 -41 -235 -2 -19 -6
-52 -9 -72 -3 -21 -7 -55 -9 -75 -3 -21 -8 -63 -12 -93 -3 -30 -8 -70 -9 -88
-1 -18 -4 -35 -7 -38 -3 -3 -107 -7 -229 -9 -123 -3 -242 -7 -264 -10 -22 -2
-60 -7 -85 -9 -264 -29 -569 -102 -820 -196 -47 -17 -103 -38 -125 -46 -73
-27 -364 -173 -446 -224 -44 -28 -83 -50 -85 -50 -3 0 -48 -29 -100 -65 -126
-86 -139 -95 -183 -130 -21 -16 -55 -43 -77 -60 -21 -16 -51 -41 -65 -55 -15
-14 -46 -40 -69 -59 -47 -39 -212 -201 -280 -276 -292 -322 -509 -669 -681
-1091 -7 -16 -13 -33 -15 -39 -1 -5 -18 -55 -38 -110 -31 -88 -86 -278 -100
-346 -3 -13 -7 -35 -10 -49 -6 -25 -23 -113 -32 -160 -2 -14 -11 -59 -19 -100
-8 -41 -16 -86 -18 -100 -3 -21 -30 -38 -178 -113 -96 -49 -214 -114 -264
-144 -85 -52 -313 -220 -380 -278 -307 -269 -509 -489 -670 -730 -73 -109
-160 -269 -204 -375 -13 -30 -29 -68 -36 -85 -41 -90 -129 -389 -160 -540 -13
-62 -54 -345 -62 -426 -14 -155 -8 -607 11 -704 2 -11 7 -42 10 -70 48 -358
233 -848 435 -1148 135 -202 256 -344 489 -574 405 -402 853 -664 1357 -798
50 -13 104 -26 120 -29 17 -2 68 -12 115 -20 207 -37 264 -41 550 -41 221 0
360 6 500 20 36 4 186 16 230 18 23 2 27 -6 62 -113 20 -63 51 -167 68 -230
99 -362 261 -752 441 -1058 27 -45 49 -84 49 -86 0 -9 186 -284 253 -372 429
-573 988 -1034 1632 -1349 93 -46 217 -102 275 -124 58 -23 114 -46 125 -51
127 -54 476 -155 680 -196 11 -2 31 -6 45 -9 63 -13 261 -44 320 -50 36 -4 73
-9 82 -10 102 -20 613 -27 803 -12 233 18 508 60 680 103 163 41 548 175 692
240 28 13 54 24 57 24 10 0 119 52 424 201 167 82 309 146 315 142 7 -3 104
-67 217 -142 548 -364 924 -546 1470 -710 58 -18 119 -36 135 -41 134 -40 430
-107 600 -135 50 -8 113 -17 140 -20 28 -3 65 -7 83 -10 18 -2 67 -6 110 -10
42 -3 91 -8 107 -10 215 -28 819 -22 1080 10 63 8 77 9 165 19 30 4 78 11 105
16 28 5 68 12 90 15 45 6 53 7 170 31 203 40 602 150 735 201 8 4 17 7 20 8 3
1 18 7 33 13 16 7 31 12 35 12 6 0 140 55 322 131 66 28 336 163 439 219 308
169 712 452 956 670 760 679 1281 1460 1606 2408 56 166 151 511 175 642 3 14
11 57 19 95 17 83 15 73 50 296 l28 177 51 -3 c457 -26 776 -26 986 0 88 11
127 16 153 20 15 3 42 7 60 10 219 37 436 98 707 200 160 60 586 286 598 317
2 4 8 8 14 8 12 0 157 103 258 184 248 199 478 431 665 671 311 399 540 858
664 1325 16 63 32 126 35 140 2 14 9 46 15 73 6 26 14 64 17 85 3 20 7 48 10
62 2 14 6 45 9 70 3 25 8 54 10 65 26 122 26 790 1 834 -2 3 -7 34 -10 69 -4
34 -11 86 -17 115 -5 29 -12 68 -15 87 -3 19 -19 89 -35 155 -17 66 -32 127
-34 135 -23 100 -137 402 -206 545 -24 50 -43 92 -44 95 -1 8 -75 141 -101
182 -13 21 -24 40 -24 43 0 10 -151 235 -222 330 -146 196 -396 466 -548 591
-19 16 -46 40 -60 52 -93 87 -339 260 -530 374 -398 237 -804 384 -1250 453
-167 26 -840 25 -1087 0 -177 -19 -305 -36 -330 -46 -27 -10 -29 -7 -149 231
-91 182 -154 291 -256 444 -57 85 -144 205 -158 216 -3 3 -13 14 -21 26 -21
31 -96 119 -164 193 -496 539 -1136 946 -1820 1158 -85 26 -279 78 -330 88
-76 15 -215 37 -260 41 -27 2 -63 6 -80 9 -155 23 -781 23 -898 -1 -12 -2 -51
-6 -87 -9 -36 -3 -76 -7 -90 -10 -14 -3 -45 -7 -70 -10 -25 -4 -67 -10 -95
-15 -27 -5 -66 -12 -85 -15 -59 -10 -302 -73 -365 -95 -33 -12 -131 -46 -219
-76 -149 -51 -159 -53 -172 -37 -17 24 -98 187 -120 243 -36 91 -206 422 -275
537 -105 173 -278 418 -375 533 -153 180 -346 379 -485 500 -40 35 -76 67 -79
70 -11 11 -158 128 -220 174 -258 192 -637 412 -900 521 -60 25 -104 44 -155
66 -11 5 -47 18 -80 29 -33 12 -69 25 -80 30 -72 32 -324 100 -425 115 -78 12
-93 14 -170 20 -41 4 -86 9 -100 12 -26 6 -1135 14 -1141 9z"/>
<path d="M4129 6676 c-2 -2 -29 -6 -59 -10 -30 -3 -93 -15 -140 -26 -547 -133
-982 -570 -1104 -1110 -41 -179 -41 -400 0 -594 38 -186 125 -384 241 -550
127 -182 364 -381 573 -483 421 -206 933 -177 1350 75 213 128 381 297 518
520 28 45 52 84 52 87 1 3 13 31 27 62 86 193 123 381 118 593 -5 166 -18 244
-70 411 -70 224 -193 427 -360 593 -98 98 -126 121 -234 193 -176 118 -328
179 -566 228 -33 7 -340 17 -346 11z"/>
<path d="M1975 4425 c-49 -13 -113 -32 -140 -43 -275 -109 -469 -343 -534
-643 -27 -124 -23 -326 8 -442 84 -317 311 -546 629 -638 173 -50 364 -45 535
12 290 98 520 344 598 639 22 84 24 105 23 240 -1 151 -19 235 -77 369 -99
230 -295 409 -532 485 -157 51 -357 59 -510 21z"/>
<path d="M768 3055 c-2 -1 -21 -5 -44 -8 -227 -31 -478 -275 -521 -506 -18
-101 -3 -236 39 -334 73 -173 247 -333 418 -384 82 -24 217 -25 302 -2 233 65
430 265 476 484 17 77 9 220 -16 295 -62 188 -233 365 -413 426 -30 10 -61 19
-69 21 -22 5 -168 12 -172 8z"/>
</g>
</svg>
